<svg width="100" height="100" viewBox="0 0 100 100" fill="none" xmlns="http://www.w3.org/2000/svg">
<path d="M88.0952 0H11.9048C5.33333 0 0 5.33333 0 11.9048V88.0952C0 94.6667 5.33333 100 11.9048 100H88.0952C94.6667 100 100 94.6667 100 88.0952V11.9048C100 5.33333 94.6667 0 88.0952 0ZM78.5714 35.7143H73.8095C68.7143 35.7143 66.6667 36.9048 66.6667 40.4762V47.619H78.5714L76.1905 59.5238H66.6667V95.2381H54.7619V59.5238H45.2381V47.619H54.7619V40.4762C54.7619 30.9524 59.5238 23.8095 69.0476 23.8095C75.9524 23.8095 78.5714 26.1905 78.5714 26.1905V35.7143Z" fill="#D7B424"/>
</svg>
