<svg width="100" height="100" viewBox="0 0 100 100" fill="none" xmlns="http://www.w3.org/2000/svg">
<g clip-path="url(#clip0)">
<path d="M11.9048 0C5.3583 0 0 5.3583 0 11.9048V88.0952C0 94.6417 5.3583 100 11.9048 100H88.0952C94.6417 100 100 94.6417 100 88.0952V11.9048C100 5.3583 94.6417 0 88.0952 0H11.9048ZM11.9048 4.7619H27.5716C19.069 13.6088 14.2857 25.0431 14.2857 36.9048C14.2857 49.1905 19.3099 60.952 28.3575 69.8568C28.6432 70.3568 28.8808 72.8084 27.7855 75.6417C27.0951 77.4275 25.7135 79.7599 23.0469 80.6408C22.0231 80.9741 21.3571 81.9782 21.4286 83.0497C21.5 84.1211 22.2876 85.0257 23.3352 85.24C30.1685 86.5971 34.5936 84.5478 38.165 82.9288C41.3793 81.4526 43.5015 80.4515 46.7634 81.7848C53.4301 84.38 60.5238 85.7143 67.8571 85.7143C77.604 85.7143 86.9797 83.3351 95.2381 78.8411V88.0952C95.2381 92.0678 92.0678 95.2381 88.0952 95.2381H11.9048C7.93218 95.2381 4.7619 92.0678 4.7619 88.0952V11.9048C4.7619 7.93218 7.93218 4.7619 11.9048 4.7619ZM69.0476 26.1905C70.3571 26.1905 71.4286 27.2619 71.4286 28.5714V50C71.4286 51.3095 70.3571 52.381 69.0476 52.381C67.7381 52.381 66.6667 51.3095 66.6667 50V28.5714C66.6667 27.2619 67.7381 26.1905 69.0476 26.1905ZM33.3333 28.5714H45.2381C46.0952 28.5714 46.9068 29.0465 47.3354 29.8084C47.7401 30.5465 47.7134 31.4745 47.261 32.2126L37.6209 47.619H45.2381C46.5476 47.619 47.619 48.6905 47.619 50C47.619 51.3095 46.5476 52.381 45.2381 52.381H33.3333C32.4762 52.381 31.6646 51.9059 31.236 51.144C30.8313 50.4059 30.8581 49.4779 31.3105 48.7398L40.9505 33.3333H33.3333C32.0238 33.3333 30.9524 32.2619 30.9524 30.9524C30.9524 29.6429 32.0238 28.5714 33.3333 28.5714ZM55.9524 35.7143C57.4048 35.7143 58.7606 36.1172 59.9749 36.7839C60.4035 36.1648 61.0714 35.7143 61.9048 35.7143C63.2143 35.7143 64.2857 36.7857 64.2857 38.0952V50C64.2857 51.3095 63.2143 52.381 61.9048 52.381C61.0714 52.381 60.4035 51.9304 59.9749 51.3114C58.7606 51.9781 57.4048 52.381 55.9524 52.381C51.3571 52.381 47.619 48.6429 47.619 44.0476C47.619 39.4524 51.3571 35.7143 55.9524 35.7143ZM82.1429 35.7143C86.7381 35.7143 90.4762 39.4524 90.4762 44.0476C90.4762 48.6429 86.7381 52.381 82.1429 52.381C77.5476 52.381 73.8095 48.6429 73.8095 44.0476C73.8095 39.4524 77.5476 35.7143 82.1429 35.7143ZM55.9524 40.4762C55.7054 40.4762 55.4643 40.5031 55.2316 40.5506C54.7661 40.6456 54.3327 40.829 53.9528 41.0854C53.5728 41.3418 53.2466 41.6681 52.9901 42.048C52.7337 42.4279 52.5503 42.8613 52.4554 43.3268C52.4079 43.5596 52.381 43.8006 52.381 44.0476C52.381 44.2946 52.4079 44.5357 52.4554 44.7684C52.5028 45.0012 52.5698 45.2243 52.66 45.4381C52.7502 45.6518 52.8619 45.8573 52.9901 46.0472C53.1184 46.2372 53.2658 46.4113 53.4273 46.5727C53.5887 46.7342 53.7628 46.8816 53.9528 47.0099C54.3327 47.2663 54.7661 47.4497 55.2316 47.5446C55.4643 47.5921 55.7054 47.619 55.9524 47.619C56.1994 47.619 56.4404 47.5921 56.6732 47.5446C58.3024 47.2123 59.5238 45.7768 59.5238 44.0476C59.5238 42.0714 57.9286 40.4762 55.9524 40.4762ZM82.1429 40.4762C81.8958 40.4762 81.6548 40.5031 81.4221 40.5506C81.1893 40.5981 80.9661 40.665 80.7524 40.7552C80.5387 40.8454 80.3332 40.9572 80.1432 41.0854C79.9533 41.2136 79.7792 41.361 79.6177 41.5225C79.2948 41.8454 79.0309 42.2297 78.8504 42.6572C78.7602 42.8709 78.6933 43.0941 78.6458 43.3268C78.5984 43.5596 78.5714 43.8006 78.5714 44.0476C78.5714 44.2946 78.5984 44.5357 78.6458 44.7684C78.6933 45.0012 78.7602 45.2243 78.8504 45.4381C78.9407 45.6518 79.0524 45.8573 79.1806 46.0472C79.3088 46.2372 79.4563 46.4113 79.6177 46.5727C79.7792 46.7342 79.9533 46.8816 80.1432 47.0099C80.3332 47.1381 80.5387 47.2498 80.7524 47.34C80.9661 47.4302 81.1893 47.4972 81.4221 47.5446C81.6548 47.5921 81.8958 47.619 82.1429 47.619C82.3899 47.619 82.6309 47.5921 82.8637 47.5446C84.4929 47.2123 85.7143 45.7768 85.7143 44.0476C85.7143 42.0714 84.119 40.4762 82.1429 40.4762Z" fill="#D7B424"/>
</g>
<defs>
<clipPath id="clip0">
<rect width="100" height="100" fill="white"/>
</clipPath>
</defs>
</svg>
